<?xml version="1.0" encoding="utf-8"?>
<!-- Generator: Adobe Illustrator 19.0.0, SVG Export Plug-In . SVG Version: 6.00 Build 0)  -->
<svg version="1.1" id="layer" xmlns="http://www.w3.org/2000/svg" xmlns:xlink="http://www.w3.org/1999/xlink" x="0px" y="0px"
	 viewBox="-153 -46 652 652" style="enable-background:new -153 -46 652 652;" xml:space="preserve">
<style type="text/css">
	.st0{fill:#0A9FA1;}
	.st1{fill:#52B9C3;}
	.st2{fill:#29519B;}
	.st3{fill:#0582B4;}
	.st4{fill:none;}
</style>
<path class="st0" d="M-122.9,315.9"/>
<path class="st1" d="M2.6,326.6c0-0.1,0.1-0.1,0.2-0.1c0.7-0.3,2.3-0.6,2.5,1.5v0.3c0,0.1-1.2,1.9-3,4.4c-1,1.4-2.9,3.7-3.9,4.8
	c-1.2,1.4-2.1,2.2-2.1,2.2c-2.1,1.8-4.4,3.5-6.8,4.9c-5.1,2.8-3.5,0.9-1-1.4c-0.2,0.1,1.4-1.3,2.9-2.8c1.5-1.5,2.9-3.1,2.9-3.1
	s0.6-0.6,1.6-1.8c0.9-0.9,2.7-3.2,3.7-4.6C0.8,329.5,1.7,328.1,2.6,326.6"/>
<path class="st1" d="M14.1,274.9c0-0.1,0-0.1,0-0.2c0.3-0.8,1.3-1.3,2.1-0.9c0.3,0.1,0.6,0.4,0.8,0.7c0.1,0.1,0.1,0.1,0.1,0.2
	c0,0.1,0.1,2.3,0.2,5.3c0.1,4.2-0.1,8.5-0.6,12.7c-0.4,3.9-1,7.7-1.9,11.5l-0.7,2.9c-0.9,2.6-2,5.2-3.2,7.6
	c-2.7,5.1-2.5,2.7-1.6-0.7c-0.1,0.1,0.5-1.9,1-3.9c0.5-2.1,0.9-4.2,0.9-4.2l0.6-2.4c0.8-3.6,1.4-7.3,1.8-11
	c0.4-4.1,0.6-8.3,0.6-12.4C14.2,277.1,14,275,14.1,274.9"/>
<path class="st1" d="M9.5,251.1C9.5,251,9.6,251,9.5,251.1c0.9-0.7,1.8-1,2.8-1h0.1c0,0,0.6,1.9,1.1,3.7s0.9,3.7,0.9,3.7
	c0,0.8-0.1,1.5-0.3,2.3c-0.3,1.5-1.2,1.1-1.7,0.3c0,0.1-1-2-1-1.9s-0.4-1.8-0.9-3.5C10.1,252.8,9.5,251.1,9.5,251.1"/>
<path class="st1" d="M-31.5,212.3c0,0-0.1,0-0.2-0.1c-0.5-0.6-1.2-2,0.8-2.8c0,0,0.2,0,0.3,0c0.1,0,2.1,0.6,5,1.8
	c5.1,2.1,10.1,4.8,14.6,7.9c4.3,2.8,8.2,6.1,11.7,9.8c1.3,1.4,2,2.3,2,2.3c1.6,2.3,2.9,4.8,4,7.4c2,5.5,0.3,3.6-1.6,0.7
	c0,0.2-1.1-1.6-2.3-3.2s-2.7-3.2-2.7-3.2s-0.6-0.7-1.7-1.9c-2-2.2-4.2-4.2-6.6-6c-5.7-4.4-11.9-8.1-18.6-10.9
	C-29.5,212.9-31.4,212.4-31.5,212.3"/>
<path class="st1" d="M-27.1,231.9c0,0,0.1,0,0.1,0.1c0.4,0.7,0.8,2.2-1.3,2.7c0,0-0.2,0-0.3,0c-0.1,0-1.9-1-4.7-2.3
	c-4.3-2-8.8-3.7-13.3-5.1c-4.1-1.3-8.4-2.4-12.6-3.2l-2.8-0.5c0,0-4.6-1-7.9-1.6c-5.6-0.8-3.4-1.5,0.2-1.7c1.4-0.1,2.8-0.1,4.2,0
	c2.2,0.1,4.4,0.3,4.4,0.3l2.5,0.4c4.4,0.8,8.6,1.9,12.9,3.2c4.7,1.5,9.3,3.2,13.8,5.3C-29.1,230.8-27.2,231.8-27.1,231.9"/>
<path class="st1" d="M-6.6,242.9C-6.6,242.9-6.6,242.9-6.6,242.9c-0.3,1.1-0.9,1.9-1.8,2.4c0,0-0.1,0-0.1,0c0,0-1.9-1.4-3.7-2.7
	c-1.8-1.3-3.7-2.5-3.7-2.5c-0.6-0.6-1.2-1.3-1.7-2c-1.1-1.5-0.2-1.7,0.9-1.4c0.9,0.2,1.7,0.5,2.5,0.9c0,0,1.9,1.2,3.7,2.6
	C-8.5,241.4-6.7,242.8-6.6,242.9"/>
<path class="st1" d="M-6,329.3c-0.1,0-0.1,0-0.2,0c-0.8-0.2-2.1-1.1-0.8-2.8c0,0,0.1-0.1,0.2-0.2c0,0,2.1-0.6,4.8-1.6
	c3.9-1.5,7.6-3.6,10.9-6.2c3.6-2.9,6.6-6.6,8.8-10.7c2.2-4.4,3.5-9.1,4-13.9c0.3-4.7-0.3-9.4-1.9-13.8c-1.4-4-3.3-7.9-5.7-11.5
	c-1.1-1.7-2.2-3.2-3.2-4.6c-0.5-0.7-1.1-1.4-1.6-2l-1-1.3l-1.7-2l-5.1-6.3c-3.7-4.3-1.6-3.4,1.3-1.2c-0.1-0.1,1.5,1.2,3.2,2.7
	s3.2,3,3.2,3l0.5,0.5l1.4,1.6c5.3,6.1,9.3,13.1,12,20.7c1.6,4.8,2.2,9.9,1.7,14.9c-0.6,5.2-2.1,10.2-4.5,14.8
	c-2.3,4.5-5.6,8.4-9.6,11.5C7,323.8,3.1,326-1,327.6C-3.9,328.7-6,329.2-6,329.3"/>
<path class="st1" d="M-7,285.5c0,0-0.1,0-0.2,0c-0.8,0-2.3-0.5-1.6-2.5c0-0.1,0.1-0.2,0.1-0.2c0.1,0,1.9-1.1,4.4-2.8l3.4-2.3
	l2.3-1.7l6.9-4.3c4.7-3.2,3.5-1.2,1,1.4c-0.9,1-2,2-3,2.8c-1.6,1.4-3.4,2.8-3.4,2.8L1,280.3l-3.5,2.4C-5.1,284.4-6.9,285.5-7,285.5"
	/>
<path class="st1" d="M-70.3,315.8c-0.1,0-0.1,0-0.2,0c-0.8-0.2-2.1-0.9-1-2.8c0-0.1,0.1-0.2,0.2-0.2l4.8-1.8
	c7.4-2.8,17.9-7.3,26.4-11.4l6-2.9l4.6-2.3l2.3-1.2c0,0,4.4-1.9,7.6-3.1c5.3-2.2,3.6-0.5,0.7,1.6c0.4-0.1-7.2,4.5-7.2,4.5l-2.4,1.2
	c-2.7,1.4-6.4,3.2-10.6,5.2c-8.4,4.1-18.8,8.5-26.3,11.3L-70.3,315.8z"/>
<path class="st1" d="M-55.4,304.4c0,0.1,0,0.1,0,0.2c-0.3,0.8-1.1,2-2.8,0.8l-0.2-0.2l-1.3-5.1l-0.8-3.5l-0.6-2.8
	c0,0-0.6-4.8-0.8-8.2c-0.3-5.7,0.7-3.6,1.7-0.2c0-0.4,2.1,8.2,2.2,8.1l0.5,2.4l0.8,3.5L-55.4,304.4z"/>
<path class="st1" d="M-49.6,323.3C-49.6,323.3-49.6,323.4-49.6,323.3c-0.8,0.7-1.8,1.1-2.8,1.1h-0.1c-0.1-0.1-2.6-7.6-2.6-7.6
	c-0.1-0.8,0-1.6,0.1-2.3c0.2-1.6,1-1.3,1.7-0.5c0.4,0.6,0.8,1.3,1.2,2C-52.2,315.9-49.7,323.2-49.6,323.3"/>
<path class="st2" d="M-99.4,292.1c-0.5-0.9-1.4-1.5-2.4-1.5c0.1-0.3,0.2-0.5,0.3-0.8c0.2-1.7,0-3.5-0.6-5.1
	c-0.5-1.7-1.5-3.2-2.9-4.4c-0.8-0.7-1.9-1.1-2.9-1.3c-1.1-0.2-2.2,0-3.2,0.4c-1.4,0.7-2.6,1.7-3.5,3c-0.6,0.9-0.8,1.4-0.9,1.4
	c-0.7,1.8-1.2,3.7-1.3,5.6c-0.2,3.3,0.5,6.5,2.1,9.4c1,1.9,2.7,3.5,4.7,4.4c1.2,0.5,2.4,0.6,3.6,0.4c1.1-0.2,2.1-0.6,2.9-1.3
	c1.2-1,2.2-2.2,2.9-3.7c0.5-1,0.8-2,1.1-3.1c0.2-1,0.3-1.9,0.4-2.9C-99.3,292.4-99.3,292.2-99.4,292.1z M-104.3,292
	c-0.1,0.1-0.1,0.2-0.1,0.3c0,0.7-0.1,1.4-0.3,2c-0.2,1.4-0.9,2.7-2,3.7c-0.4,0.4-1,0.5-1.5,0.2c-0.5-0.2-1-0.6-1.3-1
	c0,0,0-0.1,0-0.1c-0.2-0.6-0.4-1.3-0.5-1.9c-0.3-1.4-0.3-2.8-0.2-4.2c0.1-1.3,0.5-2.5,1.2-3.7c0.2-0.4,0.5-0.8,0.9-1.1
	c0.2-0.3,0.4-0.6,0.7-0.8c0.4-0.4,1.1-0.4,1.1-0.5l0.9-0.1c0.5,0.6,0.6,0.9,0.6,0.8c1.4,2.1,2,4.4,2.5,4.9c-0.1,0-0.1,0-0.2,0
	C-103.2,290.9-103.9,291.4-104.3,292L-104.3,292z"/>
<path class="st2" d="M-54,265c0.1-0.1,0.2-0.1,0.4,0c1.4,0.1,3.7,1.2,2.2,4.4c0,0-0.2,0.3-0.3,0.4c-0.1,0.1-3.3,1.5-7.6,3.9
	c-2.8,1.5-5.7,3.2-8.7,5.2c-3.1,1.9-5.9,4.2-8.4,6.8c-0.2,0.3-0.5,0.6-0.6,0.9c-0.1,0.1-0.1,0.2-0.1,0.3l-0.2,0.6
	c-0.4,0.9-0.7,1.8-1,2.8c-0.6,1.8-1.1,3.6-1.4,5.5c-0.2,0.9-0.3,1.8-0.4,2.7l-0.1,2.8c0,0.9,0,1.8,0,2.7c0,0.7,0.1,1.3,0.3,2
	c1.4,2.8,3.3,5.5,5.5,7.7c1,1,2,2,3.2,2.8c0.5,0.4,1,0.8,1.5,1.2l1.2,0.8c1.1,0.8,2.3,1.5,3.5,2.1c0,0,1.6,1,3.9,2.2
	c2.6,1.3,5.2,2.4,7.9,3.4c4.4,1.4,5.9,2,5.3,2.5c-2,0.6-4,0.7-6.1,0.3c-2.3-0.2-4.6-0.7-6.9-1.4c-2.5-0.7-4.9-1.6-7.2-2.7
	c-1.4-0.7-2.7-1.5-4-2.4c-4-2.7-7.4-6-10.1-9.9c-0.5-0.8-1-1.6-1.5-2.4c-0.2-0.4-0.5-0.8-0.7-1.3c-0.1-0.3-0.3-0.5-0.4-0.8
	c-0.2-0.3-0.3-0.7-0.3-1.1c-0.4-2.1-0.5-4.2-0.4-6.3c0-1,0.1-2,0.2-3.1c0.1-1.1,0.3-2.1,0.5-3.2c0.4-2.1,1-4.1,1.6-6.1
	c0.3-1,0.7-2,1-2.8c0.1-0.3,0.2-0.7,0.4-1c0.2-0.3,0.4-0.6,0.6-0.9c0.3-0.5,0.7-1,1.1-1.4c2.8-2.9,6-5.5,9.4-7.6
	c3.2-2,6.2-3.8,9-5.3C-57.4,266.6-54.1,265.1-54,265"/>
<path class="st2" d="M-126,299.2c0,0,0,0,0.1,0c0.4-0.5,0.9-0.9,1.4-1.3c0.7-0.5,1.7-0.9,2.7-1.4c0.1,0,0.2,0.1,0.3,0.1
	c0.3,0.6,0.6,1.3,0.7,2c0.2,1.1,0.4,2.3,0.4,3.5c0,1.5-0.1,3.1-0.4,4.6c-0.4,0.8-1,1.6-1.7,2.2c-1.4,1.4-2.4,0.5-2.8-0.6
	c-0.2-0.8-0.4-1.6-0.6-2.5c0.2-1.2,0.3-2.5,0.3-3.8c0-0.8-0.1-1.6-0.2-2.3C-125.9,299.2-126,299.1-126,299.2"/>
<path class="st2" d="M-115.2,260.2"/>
<path class="st2" d="M-84.5,220.9c-2.5,1.7-4.9,3.6-7.1,5.7c-2,1.9-3.4,3.5-3.4,3.5s-1.2,1.5-3,4.1c-2.1,3.1-4.1,6.4-5.8,9.7
	c-2,3.8-3.9,8.3-5.9,12.4c-0.3,0.5-0.5,1-0.8,1.4l-0.4,0.6l-0.2,0.3l-0.1,0.2l0,0h-0.1c-0.1,0.1-0.3,0.2-0.5,0.3
	c-0.4,0.2-0.9,0.4-1.4,0.5c-0.6,0.2-1.7,0.4-2.1,0.5l0,0c-0.1-0.2-0.1-0.3-0.1-0.5c0-0.2-0.1-0.8-0.1-1.3s0-1,0-1.5c0-1,0.1-2,0.3-3
	c0.3-1.9,0.7-3.7,1.3-5.5c0.8-2.7,1.8-5.3,3-7.8c0-0.2,0-0.3,0-0.5c-0.5-1.7-1.3-2.4-2.1-2.6c-0.8-0.1-1.7,0.1-2.4,0.6
	c-0.2,0.1-0.2,0.1-0.3,0.3c-1.3,2.7-2.3,5.6-3.2,8.4c-0.9,2.8-1.5,5.7-1.7,8.7c0,0.8-0.1,1.6-0.1,2.5v0c-0.4-0.4-0.9-0.6-1.4-0.7
	c-0.9,0-1.7,0.4-2.3,1c-0.1,0.1-0.2,0.2-0.2,0.3c-0.7,2.9-1.2,5.9-1.4,8.9c-0.1,1.2-0.3,3.1-0.3,4l-0.2,4.2c0.1,0-0.1,14.6,0,14
	c0.1,5.9,0.9,9.8,2.9,0.4c1.3-5.5,2.3-13.5,2.3-13.5l0.2-4.8c0-0.9,0.2-2.7,0.3-3.7c0.2-2.5,0.6-4.6,0.8-6c0,0.1,0.1,0.3,0.2,0.4
	c0.3,0.7,0.8,1.3,1.4,1.8c0.6,0.5,1.3,0.8,2.1,1c0.7,0.1,1.5,0.1,2.3-0.1c1.9-0.3,3.7-0.9,5.4-1.8c0.6-0.4,1.2-0.9,1.7-1.4
	c0.2-0.2,0.3-0.4,0.4-0.6l0.4-0.6c0.5-0.8,0.9-1.5,1.3-2.3c1.5-3,2.7-5.8,4-8.5c2.1-4.4,4.5-8.7,7.2-12.8c1.5-2.3,2.5-3.4,2.5-3.4
	s2-2.9,4.2-5.6c2.2-2.7,4.7-5.2,4.4-5c1.5-1.3,2.7-2.9,3.7-4.6C-78.9,217.9-80.5,218.2-84.5,220.9z"/>
<path class="st2" d="M-115.2,260.2"/>
<path class="st1" d="M-110.9,240.2c0,0,0,0.2,0,0.3c0.4-0.6,0.7-0.9,0.7-0.9s0.6-0.9,1.6-2.3c2.6-3.6,5.9-6.6,9.6-8.9
	c3.4-2.1,7-3.7,10.8-4.8c1.2-1,2.5-1.9,3.7-2.7c1-0.7,2-1.3,3.1-1.9c-0.7,0.1-2.6,0.4-4.9,0.9c-5.1,1.1-10.1,3.1-14.5,5.9
	c-4,2.6-7.5,5.8-10.4,9.7c-1,1.3-1.5,2.1-1.5,2.1c0,0-0.1,0.1-0.1,0.1C-111.8,238.1-111.1,239.1-110.9,240.2z"/>
<path class="st2" d="M-24.7,248.3c0.1,0,0.2,0,0.4,0c1.4,0.4,3.4,1.7,1.4,4.7c-0.1,0.1-0.2,0.2-0.3,0.3c-0.2,0-3.5,1-8.3,2.5
	c-7.9,2.5-17.4,5.9-27,9.9c-4.8,2-9.7,4.1-14.6,6.3c-2.5,1.1-4.9,2.1-7.6,3c-0.7,0.2-1.3,0.4-2.1,0.6c-0.9,0.2-1.8,0.2-2.7,0.1
	c-1.7-0.2-3.3-0.8-4.6-1.9c-1.1-0.8-2.1-1.7-3.1-2.7c-0.8-0.8-1.7-1.5-2.6-2.6c-0.6-0.6-1.1-1.2-1.4-2c-0.3-0.5-0.5-1-0.6-1.5
	c0-0.3,0-0.6-0.1-0.8v-0.5c0-1.2,0-2.3,0.1-3.4c0.1-2.1,0.4-4.2,0.8-6.2c0.2-1,0.4-1.9,0.6-2.8l0.5-1.9c0.4-1.5,0.9-2.9,1.4-4.4
	c0,0,0.8-1.9,2.1-4.4c1.5-2.7,3.2-5.2,5.2-7.6c3.2-3.7,4.7-4.3,4.7-3.6c-0.5,1.9-1.3,3.7-2.4,5.4c0.2-0.2-1.5,2.8-2.8,6
	c-0.9,2.2-1.6,4.4-2.3,6.6l-0.3,1c-0.1,0.3-0.2,0.7-0.4,1.2l-0.2,0.8l-0.3,1.1c-0.9,3.4-1.4,6.9-1.5,10.3c0,0.5,0,1,0,1.5v0.8
	c0.4,0.6,0.8,1.1,1.3,1.5c0.7,0.7,1.7,1.6,2.6,2.4c0.7,0.7,1.4,1.3,2.3,1.8c0.6,0.4,1.4,0.6,2.1,0.6c1-0.1,2-0.4,2.9-0.7
	c2.3-0.7,4.6-1.8,6.9-2.8c4.7-2.1,9.6-4.2,14.4-6.2c9.7-4,19.2-7.4,27-9.9C-28.2,249.3-24.9,248.3-24.7,248.3"/>
<path class="st1" d="M-65.2,262.9c1-0.5,2-0.9,3.1-1.3l-0.1-3.6c-0.2-5-0.2-13.3,0-17l0.1-2.5c0,0,0.1-8.7,0.1-8.4
	c0.1-3.5-0.3-5.9-1.7-0.3c-0.7,2.7-1.2,5.4-1.5,8.1l-0.1,2.9c-0.2,4-0.2,12.3,0,17.3L-65.2,262.9z"/>
<path class="st1" d="M22.9,253.4c-0.4-2.3-1.7-4.4-3.7-5.7c-3.8-2.2-8.2-3.3-12.6-3.2c-8.3,0-16.6,1-24.6,3
	c-0.8-3.3-1.8-6.6-2.7-9.9c-1.6-5.2-3.5-10.3-5.7-15.3c-2.1-4.9-5-9.5-8.5-13.5c-1.8-2-4-3.7-6.4-4.9c-2.5-1.2-5.4-1.6-8.1-0.9
	c-2.5,0.7-4.8,2-6.7,3.9c-0.3,0.3-0.6,0.7-0.9,1c-0.7,0.1-1.5,0.3-2.3,0.5c-2.1,0.5-4.2,1.2-6.2,2c-4.6,1.8-8.9,4.1-13,6.9
	c-0.4,0.3-0.7,0.5-1.1,0.8c0.4,0,0.6,0,0.5,0.3c-1,1.7-2.2,3.3-3.7,4.6c0.3-0.1-2.2,2.3-4.4,5c-1.3,1.5-2.5,3.2-3.3,4.3
	c0.1,0,0.2,0,0.3-0.1c0.1,0,0.1,0,0.2-0.1c1-1.3,2.2-2.6,3.4-3.8c3-3.1,6.2-5.8,9.7-8.3c3.7-2.6,7.8-4.8,12-6.5
	c1.8-0.7,3.5-1.3,5.1-1.7c-0.1,0.3-0.3,0.6-0.5,0.8c-0.9,1.6-1.6,3.3-2.1,5c0,0.1,0,0.2,0,0.3c0.8,2,2.2,1.3,2.8,0.8
	c0.1,0,0.1-0.1,0.1-0.1c0.5-1.6,1.1-3.1,1.9-4.6c0.6-1.2,1.3-2.3,2.1-3.3c0.3,0,0.7-0.1,1-0.2c0.9-0.2,1.7-0.3,2.6-0.3
	c0,0,2.1-0.4,4.2-0.6s4.2-0.2,4-0.2c1.2,0,2.4-0.1,3.5-0.4c0.3-0.2-0.5-0.7-3.3-1.3c-2.6-0.5-5.2-0.7-7.9-0.6
	c2.5-1.5,5.6-1.6,8.3-0.4c2,1,3.8,2.3,5.4,4c3.3,3.7,6,7.9,8,12.4c2.2,4.7,4,9.6,5.5,14.6c1,3.5,2,7,2.9,10.5
	c-0.7,0.2-1.4,0.4-2.1,0.6c1,0.7,1.3,2,0.8,3l2.1-0.6c3.9,15.9,6.3,32.2,7.2,48.5c0.6,9.3,0.4,18.6-0.5,27.8
	c-0.5,7.4-2.3,14.6-5.3,21.4l-0.6,1c-0.1,0.1-0.2,0.2-0.2,0.4c-0.1,0.2-0.3,0.4-0.4,0.6l-0.4,0.5c-0.7,1-1.6,1.9-2.6,2.6
	c-1,0.6-2.1,1-3.3,1.1c-1.6,0.2-3-0.1-3.4,0c-0.2,0.1-0.1,0.3,0.3,0.6c0.9,0.6,1.9,0.9,2.9,1.1c2,0.3,4.1-0.1,5.8-1.2
	c0.9-0.5,1.7-1.2,2.4-2c0.6-0.7,1.2-1.5,1.6-2.4l0.3-0.6c0.4-0.8,0.8-1.6,1.2-2.5c0.8-1.8,1.4-3.6,1.9-5.5c1.1-4.1,1.9-8.2,2.4-12.4
	c1.1-9.6,1.4-19.2,0.8-28.8c-0.8-17.2-3.3-34.3-7.4-51.1c7.7-1.9,15.5-2.9,23.4-2.9c3.9-0.1,7.7,0.8,11.1,2.6
	c1.3,0.8,2.2,2.1,2.5,3.6c0.1,1.5-0.1,3-0.8,4.3c-0.7,1.5-1.5,2.8-2.5,4.1c0,0,0,0.2,0,0.3c0.1,2.1,1.6,2,2.4,1.7
	c0.1,0,0.1,0,0.2-0.1c1.1-1.5,2.1-3.1,2.8-4.8C22.8,257.6,23.2,255.5,22.9,253.4z"/>
<path class="st3" d="M-118.5,316.2"/>
<line class="st4" x1="-117.9" y1="315.1" x2="-117.9" y2="315.1"/>
<path class="st2" d="M-118.5,316.1c0,0.1,0,0.1-0.2,0.2c-0.6,0.4-1.4,0.6-2.1,0.7c-0.8,0-1.9-0.4-2.5-2.3c0-0.2,0-0.4,0-0.6
	c0,0,0.1-0.3,0.4-0.8c0.2-0.3,0.4-0.6,0.6-0.9c0.1-0.2,0.3-0.4,0.4-0.6l0.1-0.1l0,0l0,0l0.3-0.3l0,0l0.1-0.1
	c0.3-0.2,0.5-0.3,0.8-0.5c0.7-0.2,1.4-0.3,2.1-0.1c0.4,0.1,0.8,0.2,1.2,0.4c0.6,0.3,1.2,0.7,1.7,1.1c0.5,0.4,1,0.8,1.5,1.3
	c0.6,0.5,1.1,1.1,1.5,1.8c0.8,1.3,1.5,2.7,2.1,4.1c0.6,1.3,1.3,2.7,2,4c1.5,2.8,3.1,5.5,5,8c3.9,5.1,8.7,9.4,14.3,12.6
	c2.5,1.4,5,2.6,7.7,3.7c1.2,0.5,2.4,0.9,3.5,1.2l1.6,0.5l1.3,0.4c2.5,0.6,4.1,1,4.1,1s7.5,2,13,2.9c4.7,0.7,6.1,1.3,5.6,1.8
	c-1.9,0.8-3.9,1.2-5.9,1.1c-2.3,0.2-4.6,0.2-6.9,0c-3.7-0.2-7.5-0.8-7.5-0.8s-1.6-0.3-4.4-1.1c-5.4-1.5-10.5-3.6-15.3-6.4
	c-6-3.6-11.3-8.3-15.5-13.9c-2-2.7-3.8-5.6-5.4-8.6c-0.7-1.4-1.4-2.8-2.1-4.1s-1.3-2.6-1.7-3.4c-0.2-0.3-0.5-0.7-0.8-0.9
	L-118.5,316.1z"/>
<path class="st1" d="M-23.3,349.4c-0.1,0-0.1,0-0.2,0s-2,0.8-4.8,1.7c-3.8,1.2-7.6,2-11.6,2.5c-4.2,0.5-8.5,0.6-12.8,0.4
	c-1.2,0-2.3-0.1-3.4-0.2c3.2,0.6,4.2,1,3.8,1.4c-1.9,0.8-3.9,1.2-5.9,1.1c-0.8,0.1-1.5,0.1-2.3,0.1l1.4,0.2c1.8,0.2,3.8,0.4,6,0.5
	c4.5,0.3,9,0.2,13.5-0.3c4.2-0.5,8.3-1.3,12.3-2.6c3-0.9,4.9-1.8,5-1.8c0.1,0,0.2-0.2,0.2-0.2C-21.1,350.2-22.5,349.6-23.3,349.4z"
	/>
<path class="st1" d="M-115.2,321.4c-0.5-0.9-0.9-1.9-1.3-2.6c-0.9-0.4-1.7-0.9-2.3-1.6c-0.2-0.2-0.3-0.3-0.5-0.5
	c-0.3,0.2-0.7,0.3-1,0.4h0c-0.1,0-0.2,0-0.3,0h-0.4c-0.2,0-0.4,0-0.6-0.1l0,0c-0.2,0-0.3-0.1-0.4-0.2c0,0,0,0-0.1,0l0,0
	c-0.2-0.1-0.3-0.3-0.5-0.4c0,0,0-0.1-0.1-0.1c0,0,0,0,0,0h0c-0.1-0.1-0.1-0.2-0.2-0.2c0.3,1.2,0.9,2.3,1.7,3.3c1.3,1.4,3,2.5,4.8,3
	c0.5,0.1,1.1,0.1,1.6,0.1C-114.8,322-115,321.7-115.2,321.4z"/>
<path class="st2" d="M-19.4,329.3c0.1,0,0.2,0,0.3,0.1c1.2,0.6,3.2,2.1,0.8,4.8c-0.1,0.1-0.2,0.2-0.4,0.3c-0.2,0-3.7,0.6-8.8,1
	c-8.6,0.8-17.2,0.8-25.8-0.1c-9.5-0.8-18.8-3.8-26.9-8.9c-1.9-1.3-3.6-2.5-5.2-3.7c-1.4-1.1-2.9-2.2-4.5-3.2
	c-0.2-0.2-0.5-0.3-0.8-0.4c-0.1,0,0,0-0.2,0c-0.1,0-0.2,0-0.4,0c-0.6,0-1.3,0.1-1.9,0.3c-1.6,0.4-3.9,0.6-4.1,0.7
	c-1.1,0.3-1.2,0.4-1.4,0.6c-0.1,0.1-0.3,0.4-0.3,0.4c-0.1,0.2-0.2,0.4-0.3,0.6c-0.2,0.8-0.2,1.6,0,2.3c0.6,2.7,1.5,5.3,2.8,7.8
	c2.1,4.1,2.8,5.6,2,5.5c-1.8-1-3.3-2.4-4.5-4.1c-1.6-1.8-2.9-3.9-3.9-6.1c-0.9-1.8-1.4-3.9-1.3-5.9c0.1-0.8,0.3-1.7,0.6-2.4
	c0.2-0.5,0.5-0.8,0.4-0.8c0.3-0.6,0.8-1.1,1.3-1.4c0.6-0.4,1.2-0.8,1.9-1.1c0.4-0.1,0.7-0.2,1.1-0.3l0.6-0.1l0.7-0.1
	c1.7-0.2,2.4-0.4,4.4-0.8c1.2-0.2,2.4-0.2,3.6,0.1c1.1,0.3,2.2,0.9,3.1,1.5c3.3,2.2,6.2,4.7,9.7,6.9c7.4,4.4,15.7,7,24.2,7.6
	c8.1,0.8,16.3,0.9,24.4,0.1C-22.9,329.8-19.5,329.3-19.4,329.3"/>
<path class="st1" d="M-34.7,350.1c-1.2-1.2-2.2-2.5-3.3-3.8c-0.6-0.8-1.6-2.3-2.1-2.9c-0.8-1.3-1.3-2-1.3-2s-1.2-1.8-2.3-3.6
	c-0.4-0.6-0.8-1.3-1.1-1.9c-0.8,0-1.5,0-2.3-0.1c0.8,2.3,1.8,4.6,2.8,6.8c0,0,0.6,1,1.6,2.5c0.5,0.7,1.5,2.3,2.1,3.1
	c1.1,1.5,2.2,2.8,3.5,4.1c0.1,0.1,0.2,0.1,0.3,0.1c2.2,0.2,2.2-1.4,2.1-2.1C-34.6,350.2-34.6,350.2-34.7,350.1z"/>
<path class="st1" d="M-90.1,319.9c-0.9-0.2-1.7-0.3-2.6-0.3l-1.4,0.2l-1.4,0.2c-0.5,0.1-1,0.1-1.5,0.1h-0.2c-0.9,0.2-1,0.4-1.1,0.5
	s-0.3,0.4-0.3,0.4c-0.1,0.2-0.2,0.4-0.3,0.6c-0.1,0.5-0.2,1.1-0.1,1.6h2.1c0.6,0,1.2,0,1.9-0.1l1.4-0.2l1.4-0.2
	c0.8-0.3,1.7-0.7,2.5-1.1C-88.8,321.1-88.2,320.2-90.1,319.9z"/>
<path class="st2" d="M77.3,286.6c-5.4,0.3-10.8-0.8-15.8-3v-48.7c4.7-2.2,9.9-3.2,15.2-3c12.8,0,19.2,5.9,19.2,13.7
	c0,5.9-4.1,10.9-9.9,12.1v0.1c6.5,1.3,11.3,6.8,11.7,13.5C97.6,281.9,89.4,286.6,77.3,286.6z M76.6,237.4c-2,0-4,0.3-5.9,0.9v17.2
	l3,0.1c9.4,0.2,12.6-3,12.6-9.4C86.4,240.4,83.1,237.4,76.6,237.4L76.6,237.4z M73.8,260.4l-3,0.1v19.1c2,0.8,4.1,1.1,6.2,1
	c6.3,0,10.8-2.6,10.8-9.4C87.8,263.8,83.8,260.2,73.8,260.4L73.8,260.4z M106.6,285.8v-53.2h9.9v53.2L106.6,285.8L106.6,285.8z
	 M145.9,286.6c-14.3,0-20-12.2-20-27.3c0-15.1,5.7-27.3,20-27.3c14.3,0,19.9,12.3,19.9,27.3C165.9,274.4,160.2,286.6,145.9,286.6z
	 M145.9,238.4c-8.2,0-10.1,10.6-10.1,20.6c0,9.9,1.6,20.4,10.1,20.4c8.4,0,10-10.5,10-20.4C155.9,248.9,154.1,238.4,145.9,238.4z"/>
<path class="st1" d="M185,286.6c-4.9,0.3-9.7-0.8-13.9-3.2l2.8-8.7c2.6,1.6,5.5,2.5,8.6,2.5c3.5,0.4,6.6-2,7.1-5.5
	c0-0.3,0.1-0.6,0.1-0.9c0-3.4-2-5.5-7.4-7.9c-8.3-3.7-10.6-9.5-10.6-14.7c-0.2-8.9,6.8-16.2,15.6-16.4c0.4,0,0.8,0,1.2,0
	c4.4-0.2,8.7,0.9,12.4,3.1l-2.6,7.6c-2.4-1.5-5.2-2.3-8-2.3c-3.1-0.4-6,1.8-6.4,4.9c-0.1,0.4-0.1,0.8,0,1.2c0,3.9,2.7,5.8,7.2,7.8
	c10.3,4.7,11.7,10.3,11.7,15.7C202.8,279.5,195.5,286.6,185,286.6z M211.1,285.8v-53.2h27.2v8.4h-14.6v13.5h12.8v8.2h-12.8v14.6
	h14.6v8.4L211.1,285.8L211.1,285.8z M271.8,285.8l-12.6-23.5h-0.1v23.5h-12.4V235c5-2.2,10.5-3.2,16-3.1c14.4,0,21,6.5,21,16.6
	c-0.2,6.9-5.4,12.7-12.3,13.5v0.1l14.2,23.7L271.8,285.8L271.8,285.8z M262.7,239c-1.2,0-2.5,0.2-3.6,0.7v19.5
	c0.9,0.2,1.8,0.3,2.7,0.3c6.5,0,9.7-4,9.7-10.3C271.4,242.3,269.3,239,262.7,239L262.7,239z M292.3,285.8v-53.2h27.2v8.4h-14.6v13.5
	h12.8v8.2h-12.8v14.6h14.6v8.4L292.3,285.8L292.3,285.8z M358.7,285.8L341,256c-1-1.8-2-3.6-2.8-5.5h-0.1c0.2,1.9,0.3,3.9,0.3,5.8
	v29.6h-10.5v-53.2h11l16.3,27.3c1,1.7,1.9,3.4,2.7,5.1h0.1c-0.2-1.8-0.3-3.5-0.3-5.3v-27.1h10.6v53.2L358.7,285.8L358.7,285.8z
	 M378.6,285.8v-53.2h12.5v53.2L378.6,285.8L378.6,285.8z M420.6,241.1v44.8H408v-44.8h-9.3v-8.4h31.1v8.4H420.6z M459,263.5v22.3
	h-12.5v-22.3l-14.1-30.9h13.1l7.6,20.1h0.1l8.1-20.1h11.8L459,263.5z"/>
<path class="st2" d="M72,320c-0.4-2-1.9-3-4.4-3c-1.1-0.1-2.2,0.2-3.2,0.9c-0.7,0.5-1.1,1.3-1.1,2.2c-0.1,0.7,0.2,1.4,0.7,1.9
	c0.7,0.5,1.4,0.9,2.3,1.2l4.3,1.5c1.3,0.4,2.5,1.1,3.5,2c1.9,2.2,1.7,5.6-0.5,7.5c-0.1,0.1-0.2,0.1-0.2,0.2c-3.4,2.2-7.7,2.2-11-0.1
	c-1.5-1.2-2.3-3-2.3-4.8h2.5c-0.1,1.2,0.5,2.4,1.4,3.1c1.1,0.8,2.4,1.1,3.7,1.1c1.3,0.1,2.5-0.3,3.6-1c0.8-0.5,1.3-1.4,1.3-2.4
	c0-0.8-0.2-1.6-0.8-2.1c-0.7-0.6-1.5-1-2.4-1.3l-3.6-1.4c-1.4-0.4-2.7-1.1-3.9-2c-0.9-0.9-1.4-2.2-1.3-3.4c0-1.5,0.7-2.9,1.9-3.8
	c3.1-2,7.1-2.1,10.3-0.1c1.2,1,1.9,2.4,2,3.9L72,320L72,320z M83.4,323c1.4-3,5-4.2,7.9-2.8c0.3,0.1,0.5,0.3,0.8,0.4
	c0.3,2.1,2.3,3.5,4.4,3.1c1.9-0.3,3.3-2.1,3.1-4.1c1.7-0.1,3.3,0.6,4.4,1.9c1.1,1.4,1.6,3.2,1.5,5v9.2H103v-9.2
	c0.1-1.2-0.3-2.4-1.1-3.4c-0.8-0.8-1.9-1.2-3.1-1.2c-1.3,0-2.4,0.6-3.1,1.6c-0.8,1.4-1.2,2.9-1.1,4.5v7.6H92v-9.2
	c0.1-1.2-0.3-2.4-1.1-3.4c-0.8-0.8-1.9-1.2-3-1.2c-1.3,0-2.5,0.6-3.2,1.6c-0.9,1.3-1.3,2.9-1.3,4.5v7.7h-2.6v-15.7h2.3L83.4,323z
	 M121.3,325.5c0.1-1.1-0.2-2.2-0.9-3.1c-0.7-0.7-1.6-1-2.6-0.9c-1,0-1.9,0.2-2.8,0.6c-0.7,0.5-1.1,1.3-1,2.1h-2.8
	c-0.1-2.3,1.6-4.3,3.9-4.5c0.8-0.2,1.7-0.3,2.6-0.3c1.7-0.1,3.3,0.4,4.6,1.5c1.2,1.2,1.8,2.8,1.6,4.5v10.1h-2.3l-0.3-2.6
	c-0.9,2-3,3.2-5.2,3c-1.5,0.1-2.9-0.4-4.1-1.4c-1-0.9-1.5-2.2-1.5-3.5c0-1.3,0.6-2.6,1.7-3.3c1.2-0.8,2.7-1.2,4.2-1.2
	c1.7,0,3.3,0.3,4.8,0.8L121.3,325.5L121.3,325.5z M121.3,329.1c-1.3-0.4-2.7-0.6-4.1-0.6c-1,0-2,0.2-2.8,0.6c-0.7,0.4-1.1,1.2-1.1,2
	c0,2,1.1,2.9,3.4,2.9c2.6,0,4.6-2.1,4.6-4.6C121.3,329.3,121.3,329.2,121.3,329.1L121.3,329.1z M136.4,322.2c-2.5,0-3.8,2-3.9,5.9
	v7.6H130v-15.8h2.6v3c0.5-1.9,2.2-3.3,4.2-3.3c0.6,0,1.2,0.1,1.8,0.3l-0.1,2.5C137.8,322.3,137.1,322.2,136.4,322.2z M150.8,335.2
	c-1.6,0.9-3.4,1.1-5.2,0.6c-1.1-0.3-2-1.1-2.4-2.2c-0.3-0.6-0.4-1.3-0.4-2V322h-2.5v-2h2.5v-4.4h2.6v4.4h4.9v2h-4.9v9.7
	c0,1.6,0.8,2.4,2.3,2.4c0.9,0,1.9-0.2,2.8-0.6L150.8,335.2z M165.3,315v9.1h10.2V315h2.6v20.7h-2.6v-9.3h-10.2v9.3h-2.6V315H165.3z
	 M190.2,333.9c1.8,0.3,3.4-1,3.7-2.7c0,0,0-0.1,0-0.1h2.7c-0.2,1.5-0.9,2.8-2.1,3.7c-1.2,0.9-2.8,1.4-4.3,1.3
	c-2,0.1-3.8-0.8-5.1-2.3c-1.4-1.7-2.1-3.8-2-6c-0.1-2.2,0.6-4.3,2-6c1.3-1.5,3.3-2.3,5.3-2.3c2-0.1,3.9,0.9,4.9,2.6
	c1.1,1.9,1.5,4.1,1.1,6.2h-10.8c-0.1,1.4,0.3,2.8,1.2,4C187.7,333.4,188.9,334,190.2,333.9z M192.1,322c-0.6-0.3-1.2-0.4-1.9-0.4
	c-1.2,0-2.4,0.4-3.2,1.4c-0.8,1-1.3,2.2-1.4,3.4h8.4C194.3,324.7,193.6,323,192.1,322L192.1,322z M211.4,325.5
	c0.1-1.1-0.2-2.2-0.9-3.1c-0.7-0.7-1.6-1-2.6-0.9c-1,0-1.9,0.2-2.8,0.6c-0.7,0.5-1.1,1.3-1,2.1h-2.8c-0.1-2.3,1.6-4.3,3.9-4.5
	c0.8-0.2,1.7-0.3,2.6-0.3c1.7-0.1,3.3,0.4,4.6,1.5c1.2,1.2,1.8,2.8,1.6,4.5v10.1h-2.3l-0.3-2.6c-0.9,2-3,3.2-5.2,3
	c-1.5,0.1-2.9-0.4-4.1-1.4c-1-0.9-1.5-2.2-1.5-3.5c0-1.3,0.6-2.6,1.7-3.3c1.2-0.8,2.7-1.2,4.2-1.2c1.7,0,3.3,0.3,4.8,0.8
	L211.4,325.5L211.4,325.5z M211.4,329.1c-1.3-0.4-2.7-0.6-4.1-0.6c-1,0-2,0.2-2.8,0.6c-0.7,0.4-1.1,1.2-1.1,2c0,2,1.1,2.9,3.4,2.9
	c2.6,0,4.6-2.1,4.6-4.6C211.4,329.3,211.4,329.2,211.4,329.1L211.4,329.1z M220.1,313.3h2.6v22.4h-2.6V313.3z M237.6,335.2
	c-1.6,0.9-3.4,1.1-5.2,0.6c-1.1-0.3-2-1.1-2.4-2.2c-0.3-0.6-0.4-1.3-0.4-2V322h-2.5v-2h2.5v-4.4h2.6v4.4h4.9v2h-4.9v9.7
	c0,1.6,0.8,2.4,2.3,2.4c0.9,0,1.9-0.2,2.8-0.6L237.6,335.2z M244.3,322.9c0.9-2.1,3-3.4,5.2-3.3c1.7-0.1,3.3,0.6,4.3,1.9
	c1.1,1.4,1.7,3.2,1.6,5v9.2h-2.6v-9.2c0.1-1.2-0.3-2.4-1.1-3.4c-0.8-0.8-1.9-1.2-3.1-1.2c-1.3,0-2.5,0.6-3.2,1.7
	c-0.9,1.4-1.3,3.1-1.2,4.7v7.4h-2.6v-22.4h2.6V322.9z M266.8,319.6c1.6-0.1,3.2,0.4,4.4,1.4c1.1,0.9,1.9,2.2,2.1,3.6l-2.6,0.2
	c-0.2-0.8-0.7-1.6-1.4-2.1c-0.6-0.5-1.3-0.8-2.1-0.8c-1.3,0-2.6,0.5-3.4,1.6c-0.9,1.2-1.4,2.7-1.3,4.3c-0.1,1.5,0.4,3.1,1.3,4.3
	c0.7,1,1.9,1.6,3.2,1.6c1,0.1,2-0.2,2.8-0.9c0.7-0.7,1-1.6,0.9-2.5h2.7c0,1.6-0.6,3.1-1.8,4.1c-1.3,1.1-2.9,1.6-4.6,1.6
	c-1.9,0-3.8-0.8-5.1-2.3c-1.5-1.7-2.2-3.8-2.1-6c-0.1-2.2,0.6-4.3,2-6C263.2,320.4,264.9,319.6,266.8,319.6z M288.2,325.5
	c0.1-1.1-0.2-2.2-0.9-3.1c-0.7-0.7-1.6-1-2.6-0.9c-1,0-1.9,0.2-2.8,0.6c-0.7,0.5-1.1,1.3-1,2.1h-2.8c-0.1-2.3,1.6-4.3,3.9-4.5
	c0.8-0.2,1.7-0.3,2.6-0.3c1.7-0.1,3.3,0.4,4.6,1.5c1.2,1.2,1.8,2.8,1.6,4.5v10.1h-2.3l-0.3-2.6c-0.9,2-3,3.2-5.2,3
	c-1.5,0.1-2.9-0.4-4.1-1.4c-1-0.9-1.5-2.2-1.5-3.5c0-1.3,0.6-2.6,1.7-3.3c1.2-0.8,2.7-1.2,4.2-1.2c1.7,0,3.3,0.3,4.8,0.8
	L288.2,325.5L288.2,325.5z M288.2,329.1c-1.3-0.4-2.7-0.6-4.1-0.6c-1,0-2,0.2-2.8,0.6c-0.7,0.4-1.1,1.2-1.1,2c0,2,1.1,2.9,3.4,2.9
	c1.2,0,2.4-0.5,3.3-1.4C287.8,331.7,288.3,330.4,288.2,329.1z M303.3,322.2c-2.5,0-3.8,2-3.9,5.9v7.6h-2.6v-15.8h2.6v3
	c0.5-1.9,2.2-3.3,4.2-3.3c0.6,0,1.2,0.1,1.8,0.3l-0.1,2.5C304.6,322.3,304,322.2,303.3,322.2z M314.8,333.9c1.8,0.3,3.4-1,3.7-2.7
	c0,0,0-0.1,0-0.1h2.7c-0.2,1.5-0.9,2.8-2.1,3.7c-1.2,0.9-2.8,1.4-4.3,1.3c-2,0.1-3.8-0.8-5.1-2.3c-1.4-1.7-2.1-3.8-2-6
	c-0.1-2.2,0.6-4.3,2-6c1.3-1.5,3.3-2.3,5.3-2.3c2-0.1,3.9,0.9,4.9,2.6c1.1,1.9,1.5,4.1,1.1,6.2h-10.8c-0.1,1.4,0.3,2.8,1.2,4
	C312.3,333.4,313.6,334,314.8,333.9z M316.8,322c-0.6-0.3-1.2-0.4-1.9-0.4c-1.2,0-2.4,0.4-3.2,1.4c-0.8,1-1.3,2.2-1.4,3.4h8.4
	C319,324.7,318.2,323,316.8,322L316.8,322z M345.2,320c-0.4-2-1.9-3-4.4-3c-1.1-0.1-2.2,0.2-3.2,0.9c-0.7,0.5-1.1,1.3-1.1,2.2
	c-0.1,0.7,0.2,1.4,0.7,1.9c0.7,0.5,1.4,0.9,2.3,1.2l4.3,1.5c1.3,0.4,2.5,1.1,3.5,2c1.9,2.2,1.7,5.6-0.5,7.5
	c-0.1,0.1-0.2,0.1-0.2,0.2c-3.4,2.2-7.7,2.2-11-0.1c-1.5-1.2-2.3-3-2.3-4.8h2.5c-0.1,1.2,0.5,2.4,1.4,3.1c1.1,0.8,2.4,1.1,3.7,1.1
	c1.3,0.1,2.5-0.3,3.6-1c0.8-0.5,1.3-1.4,1.3-2.4c0-0.8-0.2-1.6-0.8-2.1c-0.7-0.6-1.5-1-2.4-1.3l-3.6-1.4c-1.4-0.4-2.7-1.1-3.9-2
	c-0.9-0.9-1.4-2.2-1.3-3.4c0-1.5,0.7-2.9,1.9-3.8c3.1-2,7.1-2.1,10.3-0.1c1.2,1,1.9,2.4,2,3.9L345.2,320L345.2,320z M354.4,321.7
	c3-2.9,7.7-2.9,10.6,0c1.4,1.7,2.2,3.9,2,6.1c0.2,2.2-0.6,4.4-2,6.1c-3,2.9-7.7,2.9-10.6,0C351.7,330.3,351.7,325.3,354.4,321.7
	L354.4,321.7z M364.4,327.8c0.1-1.6-0.3-3.1-1.2-4.4c-0.8-1.1-2.1-1.7-3.4-1.6c-1.4-0.1-2.7,0.5-3.5,1.6c-1.6,2.7-1.6,6.1,0,8.9
	c0.8,1.1,2.1,1.7,3.4,1.6c1.4,0.1,2.7-0.5,3.5-1.6C364.1,330.9,364.5,329.4,364.4,327.8L364.4,327.8z M372,313.3h2.6v22.4H372V313.3
	z M391.9,332.6c-0.8,2.1-2.9,3.5-5.2,3.4c-1.6,0.1-3.1-0.5-4.3-1.5c-1.2-1.2-1.8-2.9-1.6-4.6v-10h2.6v9.8c0,2.7,1.2,4,3.7,4
	c1.3,0,2.6-0.6,3.4-1.6c0.9-1.2,1.4-2.7,1.4-4.2v-7.9h2.6v15.8h-2.6L391.9,332.6L391.9,332.6z M409.4,335.2
	c-1.6,0.9-3.4,1.1-5.2,0.6c-1.1-0.3-2-1.1-2.4-2.2c-0.3-0.6-0.4-1.3-0.4-2V322h-2.5v-2h2.5v-4.4h2.6v4.4h4.9v2H404v9.7
	c0,1.6,0.8,2.4,2.3,2.4c0.9,0,1.9-0.2,2.8-0.6L409.4,335.2z M415,316.3c-0.5,0-0.9-0.1-1.2-0.5c-0.3-0.3-0.5-0.7-0.5-1.2
	c0-0.4,0.1-0.9,0.5-1.2c0.7-0.6,1.8-0.6,2.5,0c0.3,0.3,0.5,0.7,0.5,1.2c0,0.4-0.1,0.9-0.5,1.2C415.9,316.1,415.4,316.3,415,316.3z
	 M413.7,319.9h2.6v15.8h-2.6V319.9z M423.7,321.7c3-2.9,7.7-2.9,10.6,0c1.4,1.7,2.2,3.9,2,6.1c0.2,2.2-0.6,4.4-2,6.1
	c-3,2.9-7.7,2.9-10.6,0C421,330.3,421,325.3,423.7,321.7L423.7,321.7z M433.7,327.8c0.1-1.6-0.3-3.1-1.2-4.4
	c-1.7-1.9-4.6-2.1-6.5-0.5c-0.2,0.1-0.3,0.3-0.5,0.5c-1.6,2.7-1.6,6.1,0,8.9c0.8,1.1,2.1,1.7,3.4,1.6c1.4,0.1,2.7-0.5,3.5-1.6
	C433.4,330.9,433.8,329.4,433.7,327.8L433.7,327.8z M443.8,323c0.9-2.2,3-3.5,5.3-3.4c1.7-0.1,3.3,0.6,4.3,1.9
	c1.1,1.4,1.7,3.2,1.6,5v9.2h-2.6v-9.2c0.1-1.2-0.3-2.4-1.1-3.4c-0.8-0.8-1.9-1.2-3-1.2c-1.3,0-2.5,0.6-3.2,1.6
	c-0.9,1.3-1.3,2.9-1.3,4.5v7.7h-2.6V320h2.3L443.8,323z M462,320.7c1.3-0.8,2.9-1.2,4.5-1.2c1.6-0.1,3.1,0.3,4.4,1.2
	c1,0.7,1.6,1.8,1.7,3H470c-0.2-1.4-1.4-2.1-3.6-2.1c-0.9-0.1-1.8,0.2-2.5,0.7c-0.5,0.4-0.8,1-0.9,1.6c0,0.5,0.2,1.1,0.6,1.4
	c0.6,0.5,1.3,0.8,2.1,1l3.2,1.1c1.1,0.3,2.2,0.8,3.1,1.6c0.7,0.7,1.1,1.7,1.1,2.7c-0.1,1.2-0.7,2.4-1.7,3.1c-1.4,1-3.1,1.5-4.8,1.4
	c-1.7,0.1-3.4-0.4-4.8-1.4c-1.1-0.9-1.8-2.2-1.9-3.6h2.5c0,0.9,0.5,1.7,1.2,2.3c1.8,1,3.9,1,5.7,0c0.7-0.3,1.1-1,1.1-1.7
	c0-0.6-0.2-1.1-0.6-1.5c-0.6-0.5-1.4-0.8-2.1-0.9l-3.1-1c-2.8-0.8-4.1-2.3-4.1-4.3C460.3,322.6,460.9,321.4,462,320.7z"/>
</svg>
